<?xml version="1.0" ?><!DOCTYPE svg  PUBLIC '-//W3C//DTD SVG 1.1//EN'  'http://www.w3.org/Graphics/SVG/1.1/DTD/svg11.dtd'><svg enable-background="new 0 0 512 512" id="Layer_1" version="1.1" viewBox="0 0 512 512" xml:space="preserve" xmlns="http://www.w3.org/2000/svg" xmlns:xlink="http://www.w3.org/1999/xlink"><circle cx="256" cy="256" fill="#8892BE" id="ellipse" r="256"/><g id="logo"><path d="M160.1,230.7c10,0,16.6,1.8,20,5.5c3.3,3.7,4.1,10,2.4,19c-1.8,9.3-5.3,16-10.5,20c-5.2,4-13.1,6-23.7,6   h-16l9.8-50.5H160.1z M96,332.4h26.3l6.2-32.1h22.5c9.9,0,18.1-1,24.5-3.1c6.4-2.1,12.3-5.6,17.5-10.5c4.4-4.1,8-8.5,10.7-13.4   c2.7-4.9,4.7-10.3,5.8-16.2c2.8-14.3,0.7-25.5-6.3-33.4s-18.1-12-33.3-12h-50.6L96,332.4z" fill="#FFFFFF"/><path d="M228.9,179.6H255l-6.2,32.1H272c14.6,0,24.7,2.6,30.3,7.7c5.6,5.1,7.2,13.4,5,24.8l-10.9,56.2h-26.5   l10.4-53.4c1.2-6.1,0.7-10.2-1.3-12.4c-2.1-2.2-6.4-3.3-13.1-3.3H245l-13.4,69.1h-26.1L228.9,179.6z" fill="#FFFFFF"/><path d="M365.3,230.7c10,0,16.6,1.8,20,5.5c3.3,3.7,4.1,10,2.4,19c-1.8,9.3-5.3,16-10.5,20c-5.2,4-13.1,6-23.7,6   h-16l9.8-50.5H365.3z M301.2,332.4h26.3l6.2-32.1h22.5c9.9,0,18.1-1,24.5-3.1c6.4-2.1,12.2-5.6,17.5-10.5c4.4-4.1,8-8.5,10.7-13.4   c2.7-4.9,4.7-10.3,5.8-16.2c2.8-14.3,0.7-25.5-6.3-33.4c-7-8-18.1-12-33.3-12h-50.6L301.2,332.4z" fill="#FFFFFF"/></g></svg>