<?xml version="1.0" encoding="utf-8"?>
<!-- Generator: Adobe Illustrator 24.3.0, SVG Export Plug-In . SVG Version: 6.00 Build 0)  -->
<svg version="1.1" id="Layer_1" xmlns="http://www.w3.org/2000/svg" xmlns:xlink="http://www.w3.org/1999/xlink" x="0px" y="0px"
	 viewBox="0 0 512 512" style="enable-background:new 0 0 512 512;" xml:space="preserve">
<style type="text/css">
	.st0{fill:#070444;}
	.st1{fill:#5BC3F6;}
</style>
<g id="XMLID_5_">
	<polyline id="XMLID_19_" class="st0" points="404.13,0 124.98,0 124.98,512 126.39,512 507.37,512 507.37,107.73 405.39,1.26 
		404.13,0 	"/>
	<rect id="XMLID_20_" x="4.63" y="27.35" class="st1" width="371.31" height="143.5"/>
	<polygon id="XMLID_21_" class="st1" points="404.13,0 404.13,107.73 507.37,107.73 	"/>
	<path id="XMLID_27_" class="st0" d="M93.28,54.57c5.05-1.12,12.2-1.82,22.72-1.82c9.82,0,16.97,2.24,21.74,7.15
		c4.63,4.63,7.86,12.76,7.86,22.02c0,9.26-2.38,17.39-6.59,22.44c-5.61,6.59-13.61,9.54-22.86,9.54c-1.68,0-3.37-0.14-4.49-0.28v31
		H93.42V54.57H93.28z M111.52,94.97c0.98,0.14,2.24,0.28,4.21,0.28c7.29,0,11.78-4.91,11.78-12.76c0-6.73-3.51-11.36-10.38-11.36
		c-2.81,0-4.63,0.28-5.47,0.56v23.29H111.52z"/>
	<path id="XMLID_28_" class="st0" d="M166.08,120.21c4.21,2.81,10.94,5.75,17.81,5.75c6.31,0,9.4-2.81,9.4-7.43
		c0-4.49-3.09-7.01-10.8-10.52c-11.64-5.47-19.22-13.89-19.22-27.49c0-16.13,10.24-28.62,27.49-28.62c8.28,0,14.03,1.96,18.66,4.77
		l-3.93,19.5c-2.95-1.82-8-4.35-15.01-4.35c-5.61,0-8.7,2.67-8.7,6.73c0,4.63,3.65,6.45,12.34,10.8
		c12.34,5.89,17.96,14.73,17.96,27.49c0,15.71-9.26,29.18-29.32,29.18c-8.28,0-16.27-2.95-20.2-5.75L166.08,120.21z"/>
	<path id="XMLID_35_" class="st0" d="M249.13,127.65c-0.56,0-1.26,0-1.82,0V68.73h0.28c4.07,0,8.98,0,11.5,2.1
		c2.67,2.1,4.63,4.63,6.17,7.72c1.54,3.09,2.52,6.59,2.67,10.1c0.14,4.21,0,7.57,0,10.52c0,2.81,0,6.45-0.7,9.82
		c-0.56,3.51-1.68,6.73-3.23,9.68c-1.54,2.95-4.35,5.05-7.01,6.87C254.88,127.23,252.21,127.65,249.13,127.65 M252.63,51.9
		c-2.1,0-4.21,0.14-5.61,0.28c-2.52,0.14-3.93,0.14-4.49,0.14h-15.01v92.44h17.67c7.86,0,14.45-1.12,19.78-3.37
		c5.33-2.24,9.82-5.33,13.05-9.4c3.37-4.07,5.75-8.84,7.15-14.45c1.4-5.61,2.24-11.64,2.24-18.24c0-8.56,0-15.15-1.68-21.74
		c-1.54-5.89-4.63-10.66-7.72-14.17c-3.09-3.51-6.59-6.03-10.24-7.72c-3.65-1.68-7.29-2.81-10.52-3.37
		C255.58,52.04,254.04,51.9,252.63,51.9"/>
	<path id="XMLID_47_" class="st1" d="M256,322.77c-10.66,0-14.45-0.28-16.55-0.56v-63.82c1.96-0.28,9.12-0.56,19.08-0.56
		c23.85,0,34.23,9.96,34.23,32.82C292.75,318.98,276.06,322.77,256,322.77 M258.52,230.75c-19.22,0-38.29,0.28-47.97,0.56
		c-1.26,0-1.54,0.56-1.54,1.96v181.51c0,1.4,0.56,1.96,1.82,1.96h26.93c1.26,0,1.82-0.56,1.82-2.24V349.7c1.82,0,8.56,0,15.71,0
		c37.31,0,68.03-12.06,68.03-57.23C322.91,259.51,308.18,230.75,258.52,230.75"/>
	<path id="XMLID_50_" class="st1" d="M385.33,278.3c-29.88,0-46.43,18.24-46.43,41.24c0,20.76,9.12,31.84,35.21,43.77
		c18.24,8.28,22.86,12.48,22.86,19.92c0,6.31-4.07,12.76-15.71,12.76c-13.19,0-27.91-6.03-41.1-15.43
		c-0.14-0.14-0.42-0.28-0.56-0.28c-0.56,0-1.12,0.56-1.12,1.68v26.23c0,1.4,0.56,2.24,1.54,2.81c10.66,7.43,25.81,11.08,39.28,11.08
		c27.91,0,47.41-15.43,47.41-43.77c0-20.48-11.22-31-37.31-42.92c-19.08-8.56-22.3-12.2-22.3-19.08c0-5.47,3.37-11.92,15.71-11.92
		c13.19,0,26.09,5.19,35.21,10.8c0.28,0.28,0.7,0.28,0.98,0.28c0.84,0,1.26-0.84,1.26-2.1v-23.29c0-1.68-0.28-2.52-1.54-3.65
		C411.7,281.95,400.9,278.3,385.33,278.3"/>
</g>
</svg>
